<svg width="21" height="20" viewBox="0 0 21 20" fill="none" xmlns="http://www.w3.org/2000/svg">
<g id="Frame 52">
<path id="Vector" d="M12.7 2.9001C12.85 2.9001 13 2.9001 13.3 2.9001V5.1501C13.15 5.1501 12.85 5.1501 12.55 5.1501C12.25 5.1501 11.95 5.1501 11.8 5.3001C11.65 5.4501 11.65 5.6001 11.65 5.9501C11.65 6.2501 11.65 6.4501 11.65 6.7501H13.3V8.6501H11.65V16.9001H9.10001V8.6001H7.75V6.7001H9.10001V6.0501C9.10001 4.9501 9.25 4.1501 9.55 3.8001C10 3.1501 10.9 2.8501 12.25 2.8501C12.4 2.9001 12.55 2.9001 12.7 2.9001Z" fill="#0C0C0C"/>
</g>
</svg>
