<svg width="21" height="20" viewBox="0 0 21 20" fill="none" xmlns="http://www.w3.org/2000/svg">
<g id="icons / 40x40 / instagram" opacity="0.8">
<path id="Vector" d="M18.4485 6.72248C18.4387 6.051 18.3143 5.38485 18.0762 4.75685C17.6595 3.68444 16.811 2.83646 15.7368 2.42133C15.1157 2.18805 14.4591 2.06298 13.7945 2.04879C12.9398 2.01064 12.6688 2 10.4991 2C8.32941 2 8.05131 2 7.2028 2.04879C6.53909 2.06298 5.8825 2.18805 5.26144 2.42133C4.18725 2.83646 3.33785 3.68444 2.92203 4.75685C2.68836 5.37687 2.56219 6.03238 2.54976 6.69498C2.51155 7.54917 2.5 7.81972 2.5 9.98581C2.5 12.1519 2.5 12.4287 2.54976 13.2766C2.56308 13.9401 2.68836 14.5947 2.92203 15.2165C3.33874 16.2881 4.18725 17.136 5.26233 17.5512C5.88072 17.7924 6.53732 17.929 7.20369 17.9503C8.05931 17.9885 8.3303 18 10.5 18C12.6697 18 12.9478 18 13.7963 17.9503C14.46 17.937 15.1166 17.812 15.7386 17.5787C16.8127 17.1627 17.6613 16.3147 18.078 15.2432C18.3116 14.6222 18.4369 13.9676 18.4502 13.3033C18.4884 12.4499 18.5 12.1794 18.5 10.0124C18.4982 7.84633 18.4982 7.57135 18.4485 6.72248ZM10.4938 14.0821C8.22457 14.0821 6.38627 12.2468 6.38627 9.98137C6.38627 7.71593 8.22457 5.8807 10.4938 5.8807C12.7612 5.8807 14.6013 7.71593 14.6013 9.98137C14.6013 12.2468 12.7612 14.0821 10.4938 14.0821ZM14.7648 6.68522C14.2343 6.68522 13.807 6.25768 13.807 5.72902C13.807 5.20036 14.2343 4.77281 14.7648 4.77281C15.2934 4.77281 15.7217 5.20036 15.7217 5.72902C15.7217 6.25768 15.2934 6.68522 14.7648 6.68522Z" fill="#0C0C0C"/>
<path id="Vector_2" d="M10.4952 12.485C11.8773 12.485 12.9977 11.3646 12.9977 9.98248C12.9977 8.60039 11.8773 7.47998 10.4952 7.47998C9.11308 7.47998 7.99268 8.60039 7.99268 9.98248C7.99268 11.3646 9.11308 12.485 10.4952 12.485Z" fill="#0C0C0C"/>
</g>
</svg>
