<svg width="21" height="20" viewBox="0 0 21 20" fill="none" xmlns="http://www.w3.org/2000/svg">
<g id="Frame 60" opacity="0.8">
<path id="Vector" fill-rule="evenodd" clip-rule="evenodd" d="M15.6499 3.7499C14.7999 3.6999 13.0499 3.6499 10.3999 3.6499H10.0499C7.4999 3.6499 5.79992 3.6999 4.94992 3.7999C3.79992 3.8999 2.9999 4.1999 2.5499 4.5999C2.1499 4.9499 1.84991 5.5999 1.74991 6.4499C1.69991 6.9999 1.6499 8.1499 1.6499 9.8999V10.1499C1.6499 11.7999 1.6999 12.9499 1.7999 13.4999C1.9499 14.2999 2.19992 14.8999 2.69992 15.2499C3.19992 15.6499 4.04991 15.8999 5.24991 15.9999C6.09991 16.0499 7.84991 16.0999 10.4999 16.0999H10.8499C13.3999 16.0999 15.0999 16.0499 15.9499 15.9499C17.0999 15.8499 17.8999 15.5499 18.3499 15.1499C18.7499 14.7999 19.0499 14.1499 19.1499 13.2999C19.1999 12.7499 19.2499 11.5999 19.2499 9.8499V9.5999C19.2499 7.9499 19.1999 6.7999 19.0999 6.2499C18.9499 5.4499 18.6999 4.8499 18.1999 4.4999C17.6999 4.0999 16.8499 3.8499 15.6499 3.7499ZM13.6999 9.8999L8.19992 13.1999V6.5999L13.6999 9.8999Z" fill="#0C0C0C"/>
</g>
</svg>
